<?xml version="1.0" encoding="UTF-8"?>
<svg id="Capa_1" data-name="Capa 1" xmlns="http://www.w3.org/2000/svg" viewBox="0 0 325.65 122.32">
  <defs>
    <style>
      .cls-1, .cls-2, .cls-3 {
        fill: #fff;
      }

      .cls-2 {
        font-family: GandhiSans-Bold, 'Gandhi Sans';
        font-weight: 700;
      }

      .cls-2, .cls-3 {
        font-size: 48px;
      }

      .cls-3 {
        font-family: GandhiSans-Regular, 'Gandhi Sans';
      }

      .cls-4 {
        stroke-width: 2px;
      }

      .cls-4, .cls-5 {
        fill: none;
        stroke: #fff;
        stroke-miterlimit: 10;
      }

      .cls-6 {
        letter-spacing: 0em;
      }

      .cls-7 {
        letter-spacing: -.02em;
      }

      .cls-8 {
        letter-spacing: -.03em;
      }

      .cls-5 {
        stroke-width: 4px;
      }
    </style>
  </defs>
  <path class="cls-5" d="m50.78,2C21.85,2.18-.59,31.87,2.24,53.72c.7,5.42,2.91,9.94,5.32,13.5,3.53.17,8.86.31,15.4,0,2.56-.12,4.31-.3,5.31-.33,5.61-.2,10.41.18,23.29.33h41.8c3.99-4.66,5.86-9.17,6.6-13.2C103.81,32.97,80.8,1.81,50.78,2Z"/>
  <path class="cls-1" d="m39.28,66.73c-.63-1.4-1.01-2.91-1.08-4.56-.12-3.18,1.03-5.87,3.59-7.82,1.27-.97,2.68-1.76,4.03-2.63.07.09-2.89,7.27-2.73,11.21.05,1.18.2,2.33.41,3.48.6.08,1.22.19,1.86.37.17.05.34.07.51.11-.69-2.8-.8-5.69-.19-8.67.42-2.04,1.24-3.89,2.69-5.41.92-.97,1.91-1.88,2.89-2.83-.1,5.9-.19,11.73-.29,17.55.85.02,1.71,0,2.58-.04.01-.78.02-1.36.02-1.53.02-5.2.07-10.4.12-15.61,0-.07.03-.15.04-.19,4.5,3.1,6.28,7.46,5.9,12.79-.1,1.4-.34,2.77-.69,4.1.79-.08,1.57-.15,2.35-.22,1.19-4.9.74-9.81-2.2-14.82,2.46,1.04,4.59,2.54,6.08,4.7,1.53,2.21,1.96,4.75,1.37,7.41-.19.86-.47,1.66-.79,2.43.81-.01,1.57.05,2.29.18.09-.26.21-.5.29-.77,1.39-4.76.61-9.05-3.04-12.6-2.18-2.12-4.99-3.26-7.59-4.71-1.61-.9-3.23-1.79-4-3.68-.4-.99-1.62-1.01-2.06-.04-.89,1.97-2.65,2.83-4.38,3.77-1.95,1.06-3.98,1.97-5.86,3.13-3.86,2.37-5.57,5.96-5.42,10.43.06,1.9.55,3.67,1.31,5.34.62-.36,1.28-.66,1.99-.87Z"/>
  <path class="cls-1" d="m13.08,52.8c.99-.32,1.96-.69,2.98-1.04.06.79.11,1.52.16,2.18-1.48.28-2.94.43-4.32.86-2.42.74-4.17,2.28-4.96,4.77-.93,2.96-.52,5.86.49,8.62.6-.42,1.24-.78,1.91-1.08-.57-1.68-.81-3.44-.65-5.25.25-2.89,1.85-4.65,4.7-5.21,1.49-.29,2.99-.49,4.52-.25.71.11,1.2-.67,1.01-1.44,0-.04-.02-.07-.03-.11-1.14-3.36-.07-6.78,2.77-8.9.04-.03.11-.02.25-.03.42.67.87,1.38,1.26,2.01-.95.8-1.88,1.55-2.78,2.35-1.35,1.2-1.34,2.86-1.34,4.47,0,.06,0,.12.02.18.14.54.87.85,1.44.63.27-.1.54-.24.76-.42,1.35-1.09,2.97-1.47,4.62-1.64,1.28-.13,2.47.36,3.49,1.15.53.4,1.9,1.96,2.1,2.46,1.25,3.23,2.09,6.5.97,9.97,0,.03-.02.06-.03.09.69.33,1.33.75,1.93,1.22.28-.87.5-1.78.64-2.72.58-3.85-.34-7.38-2.44-10.66-1.6-2.49-3.82-3.77-6.74-3.52-1.42.12-2.8.67-4.19,1.02-.05-.05-.09-.11-.14-.17.32-.39.59-.85.98-1.14.77-.56,1.64-.99,2.41-1.55.32-.23.71-.66.69-.97-.04-.63-.27-1.28-.55-1.85-.38-.78-.89-1.5-1.33-2.26-.94-1.64-1.87-1.81-3.22-.46-1.14,1.14-2.19,2.37-3.29,3.59-.07-.08-.17-.21-.27-.35-2.22-3-5.23-4.21-8.87-3.78-3.06.37-5.37,1.99-6.93,4.64-.57.96-.43,1.54.48,2.17.62.43,1.27.84,1.92,1.22,3.03,1.73,6.21,2.31,9.59,1.23Zm-3.25-7.13c2.56.19,4.5,1.38,5.7,3.7-3.26,2.48-9.31,2.18-12.22-.62,1.61-2.22,3.79-3.28,6.52-3.08Z"/>
  <path class="cls-1" d="m114.19,42.19c-.82-1.01-2.21-1.17-3.68-.42-.88.45-1.77.91-2.65,1.37-.06-.09-.12-.17-.18-.26.5-.51,1-1.01,1.5-1.52.53-.55,1.07-1.09,1.58-1.65,1.14-1.24,1.21-2.53.19-3.43-1.01-.9-2.45-.84-3.81.2-1.2.91-2.37,1.85-3.55,2.78.3-1.01.84-1.85,1.36-2.69.76-1.24.54-2.48-.56-3.2-1.08-.71-2.33-.57-3.45.4-.3.27-.58.56-.85.86-2.91,3.18-5.26,6.67-7.03,10.48-.32.69-.6.98-1.55.78-3.04-.64-5.59.17-7.53,2.43-4.95,5.79-9.9,11.58-14.85,17.37.95-.11,6.52-4.56,7.89-6.16,1.17.88,2.29,1.72,3.4,2.55.1-.06.16-.12.19-.18.17-.29,0-.81-.46-1.26-.25-.11-.52-.26-.79-.45-.77-.52-1.24-1.16-1.53-1.61,1.31-1.53,2.68-3.12,4.03-4.7,1.42,1.09,2.72,2.08,4.02,3.08.06-.05.12-.11.18-.16.23-.2.46-.39.69-.56-.63-.3-1.42-.75-2.25-1.43-.82-.68-1.42-1.37-1.83-1.93,1.16-1.32,2.27-2.8,3.63-4.08,1.96-1.84,4.31-1.73,7.32.16,1.99-5.18,4.8-9.92,8.93-13.96.11-.11.41-.07.92-.13-2.9,4.94-5.68,9.67-8.21,13.97,2.07-1.7,4.48-3.66,6.84-5.65,2.33-1.96,4.58-4.01,7.08-5.79.18.17.35.33.53.5-4.08,4.46-8.66,8.5-13.36,12.44.07.11.15.22.22.33,5.24-2.51,10.48-5.01,15.72-7.52.12.1.23.2.35.3-.41.42-.76.89-1.22,1.24-4.05,3.01-8.54,5.34-13.5,6.91-.31.1-.62.2-.93.3.43.77.99,1.48,1.22,2.26.49,1.74.04,3.36-1.53,4.52-2.33,1.74-4.76,3.36-7.18,5.05-1.08-.75-2.01-1.39-2.94-2.04-.08.03-.12.08-.15.12-.15.21-.02.62.34,1.01.16.09.34.2.52.34.58.45.91.97,1.1,1.35-.93.65-1.88,1.3-2.82,1.95.93.13,8.96-3.85,12.05-6,1.48-1.03,2.5-2.36,2.72-4.05.15-1.16.03-2.34.03-3.6.11-.05.36-.16.62-.26,4.59-1.78,8.85-4.05,12.59-7.06,1.3-1.05,1.48-2.25.63-3.29Z"/>
  <rect class="cls-5" x="5.37" y="67.21" width="90.19" height="46.2" rx="2.96" ry="2.96"/>
  <line class="cls-4" x1="22.96" y1="67.21" x2="22.96" y2="113.41"/>
  <line class="cls-4" x1="51.56" y1="67.21" x2="51.56" y2="113.41"/>
  <line class="cls-4" x1="77.96" y1="67.21" x2="77.96" y2="113.41"/>
  <line class="cls-4" x1="5.37" y1="80.41" x2="95.56" y2="80.41"/>
  <line class="cls-4" x1="5.37" y1="98.01" x2="95.56" y2="98.01"/>
  <text class="cls-3" transform="translate(124.77 66.04)"><tspan class="cls-7" x="0" y="0">E</tspan><tspan class="cls-8" x="23.76" y="0">C</tspan><tspan x="52.66" y="0">O</tspan></text>
  <text class="cls-2" transform="translate(124.77 111.04)"><tspan class="cls-6" x="0" y="0">B</tspan><tspan x="27.46" y="0">ARRIO</tspan></text>
</svg>